<?xml version="1.0" encoding="UTF-8"?>
<svg width="60px" height="60px" viewBox="0 0 60 60" version="1.1" xmlns="http://www.w3.org/2000/svg" xmlns:xlink="http://www.w3.org/1999/xlink">
    <!-- Generator: Sketch 46.2 (44496) - http://www.bohemiancoding.com/sketch -->
    <title>Group 2</title>
    <desc>Created with Sketch.</desc>
    <defs></defs>
    <g id="Page-1" stroke="none" stroke-width="1" fill="none" fill-rule="evenodd">
        <g id="Group-2">
            <g id="Foursquare-Copy" fill="#D41107">
                <path d="M30,60 C46.5685425,60 60,46.5685425 60,30 C60,13.4314575 46.5685425,0 30,0 C13.4314575,0 0,13.4314575 0,30 C0,46.5685425 13.4314575,60 30,60 Z" id="Oval"></path>
            </g>
            <g id="lastfm_Logo" transform="translate(9.000000, 19.000000)" fill-rule="nonzero" fill="#FFFFFF">
                <path d="M18.5224134,20.4864927 L16.982688,16.3609615 C16.982688,16.3609615 14.4806804,19.1115578 10.7286826,19.1115578 C7.40870733,19.1115578 5.05156729,16.2661258 5.05156729,11.713471 C5.05156729,5.88053524 8.03407101,3.79396989 10.9692071,3.79396989 C15.2026225,3.79396989 16.5495596,6.49696678 17.7044458,9.95901199 L19.2441712,14.7013381 C20.7833436,19.3010474 23.6700062,23 31.9928909,23 C37.9590042,23 42,21.1981232 42,16.4559788 C42,12.6147727 39.7866217,10.6228613 35.6490475,9.67432345 L32.5701497,9.0104741 C30.4535341,8.53629599 29.8281705,7.68259372 29.8281705,6.25987772 C29.8281705,4.64749048 31.1268184,3.69895259 33.2439869,3.69895259 C35.5532063,3.69895259 36.8039337,4.55265486 36.9965376,6.5918024 L41.8073961,6.02260699 C41.4225569,1.75464067 38.4398689,0 33.5326163,0 C29.2029911,0 24.9692071,1.61238724 24.9692071,6.78147364 C24.9692071,10.0062481 26.556853,12.0455773 30.5495596,12.9939336 L33.82143,13.7524368 C36.2749641,14.3216323 37.0925631,15.3174063 37.0925631,16.6928861 C37.0925631,18.4471635 35.3607867,19.1586123 32.089285,19.1586123 C27.2301373,19.1586123 25.2099159,16.6452867 24.0550297,13.1832414 L22.4673837,8.44127869 C20.4471623,2.27623659 17.2233968,0 10.8247081,0 C3.75273503,0 0,4.41021975 0,11.9029606 C0,19.1113762 3.75273503,22.9998183 10.4883424,22.9998183 C15.9240116,22.9998183 18.5224134,20.4864927 18.5224134,20.4864927 L18.5224134,20.4864927 Z" id="Shape"></path>
            </g>
        </g>
    </g>
</svg>